<mxfile host="app.diagrams.net" modified="2020-11-27T22:51:53.091Z" agent="5.0 (Macintosh; Intel Mac OS X 10_15_7) AppleWebKit/537.36 (KHTML, like Gecko) Chrome/86.0.4240.75 Safari/537.36" etag="VwhyIWt_yDUtVh-fbd-s" version="13.10.4" type="github">
  <diagram name="Page-1" id="b5b7bab2-c9e2-2cf4-8b2a-24fd1a2a6d21">
    <mxGraphModel dx="1145" dy="741" grid="1" gridSize="10" guides="1" tooltips="1" connect="1" arrows="1" fold="1" page="1" pageScale="1" pageWidth="827" pageHeight="1169" background="#ffffff" math="0" shadow="0">
      <root>
        <mxCell id="0" />
        <mxCell id="1" parent="0" />
        <mxCell id="6e0c8c40b5770093-49" value="Kafka" style="shape=folder;fontStyle=1;spacingTop=10;tabWidth=50;tabHeight=17;tabPosition=left;html=1;rounded=0;shadow=0;comic=0;labelBackgroundColor=none;strokeWidth=1;fontFamily=Verdana;fontSize=10;align=center;" parent="1" vertex="1">
          <mxGeometry x="350" y="350" width="112" height="70" as="geometry" />
        </mxCell>
        <mxCell id="SEqcekwWrwrfw8yZ3bpo-18" value="" style="group" vertex="1" connectable="0" parent="1">
          <mxGeometry x="80" y="80" width="290" height="190" as="geometry" />
        </mxCell>
        <mxCell id="SEqcekwWrwrfw8yZ3bpo-14" value="Producers" style="shape=folder;fontStyle=1;tabWidth=110;tabHeight=30;tabPosition=left;html=1;boundedLbl=1;labelInHeader=1;" vertex="1" parent="SEqcekwWrwrfw8yZ3bpo-18">
          <mxGeometry width="280" height="190" as="geometry" />
        </mxCell>
        <mxCell id="SEqcekwWrwrfw8yZ3bpo-15" value="CryptoFeed" style="html=1;" vertex="1" parent="SEqcekwWrwrfw8yZ3bpo-18">
          <mxGeometry x="20" y="47.5" width="110" height="47.5" as="geometry" />
        </mxCell>
        <mxCell id="SEqcekwWrwrfw8yZ3bpo-16" value="NewsFeed" style="html=1;" vertex="1" parent="SEqcekwWrwrfw8yZ3bpo-18">
          <mxGeometry x="150" y="47.5" width="110" height="47.5" as="geometry" />
        </mxCell>
        <mxCell id="SEqcekwWrwrfw8yZ3bpo-17" value="TwitterFeed" style="html=1;" vertex="1" parent="SEqcekwWrwrfw8yZ3bpo-18">
          <mxGeometry x="20" y="114" width="110" height="47.5" as="geometry" />
        </mxCell>
        <mxCell id="SEqcekwWrwrfw8yZ3bpo-24" value="REST API" style="html=1;" vertex="1" parent="1">
          <mxGeometry x="610" y="320" width="110" height="50" as="geometry" />
        </mxCell>
        <mxCell id="SEqcekwWrwrfw8yZ3bpo-27" value="" style="group" vertex="1" connectable="0" parent="1">
          <mxGeometry x="440" y="80" width="280" height="190" as="geometry" />
        </mxCell>
        <mxCell id="SEqcekwWrwrfw8yZ3bpo-20" value="Consumers" style="shape=folder;fontStyle=1;tabWidth=110;tabHeight=30;tabPosition=left;html=1;boundedLbl=1;labelInHeader=1;container=0;" vertex="1" parent="SEqcekwWrwrfw8yZ3bpo-27">
          <mxGeometry width="280" height="190" as="geometry" />
        </mxCell>
        <mxCell id="SEqcekwWrwrfw8yZ3bpo-22" value="WebSocket API" style="html=1;container=0;" vertex="1" parent="SEqcekwWrwrfw8yZ3bpo-27">
          <mxGeometry x="20" y="50" width="110" height="50" as="geometry" />
        </mxCell>
        <mxCell id="SEqcekwWrwrfw8yZ3bpo-23" value="TimescaleDB" style="html=1;container=0;" vertex="1" parent="SEqcekwWrwrfw8yZ3bpo-27">
          <mxGeometry x="20" y="120" width="110" height="50" as="geometry" />
        </mxCell>
        <mxCell id="SEqcekwWrwrfw8yZ3bpo-25" value="PostgreSQL" style="html=1;container=0;" vertex="1" parent="SEqcekwWrwrfw8yZ3bpo-27">
          <mxGeometry x="150" y="120" width="110" height="50" as="geometry" />
        </mxCell>
        <mxCell id="SEqcekwWrwrfw8yZ3bpo-28" value="" style="endArrow=open;endFill=1;endSize=12;html=1;exitX=0.5;exitY=1;exitDx=0;exitDy=0;exitPerimeter=0;entryX=0;entryY=0;entryDx=0;entryDy=43.5;entryPerimeter=0;" edge="1" parent="1" source="SEqcekwWrwrfw8yZ3bpo-14" target="6e0c8c40b5770093-49">
          <mxGeometry width="160" relative="1" as="geometry">
            <mxPoint x="160" y="344.5" as="sourcePoint" />
            <mxPoint x="320" y="344.5" as="targetPoint" />
          </mxGeometry>
        </mxCell>
        <mxCell id="SEqcekwWrwrfw8yZ3bpo-29" value="" style="endArrow=open;endFill=1;endSize=12;html=1;entryX=0.5;entryY=1;entryDx=0;entryDy=0;entryPerimeter=0;exitX=0;exitY=0;exitDx=112;exitDy=43.5;exitPerimeter=0;" edge="1" parent="1" source="6e0c8c40b5770093-49" target="SEqcekwWrwrfw8yZ3bpo-20">
          <mxGeometry width="160" relative="1" as="geometry">
            <mxPoint x="570" y="320" as="sourcePoint" />
            <mxPoint x="520" y="230" as="targetPoint" />
          </mxGeometry>
        </mxCell>
        <mxCell id="SEqcekwWrwrfw8yZ3bpo-30" value="" style="endArrow=open;endFill=1;endSize=12;html=1;exitX=0.75;exitY=1;exitDx=0;exitDy=0;exitPerimeter=0;entryX=0.5;entryY=0;entryDx=0;entryDy=0;" edge="1" parent="1" source="SEqcekwWrwrfw8yZ3bpo-20" target="SEqcekwWrwrfw8yZ3bpo-24">
          <mxGeometry width="160" relative="1" as="geometry">
            <mxPoint x="230" y="280" as="sourcePoint" />
            <mxPoint x="360" y="403.5" as="targetPoint" />
          </mxGeometry>
        </mxCell>
      </root>
    </mxGraphModel>
  </diagram>
</mxfile>
